<svg width="18" height="27" viewBox="0 0 18 27" fill="none" xmlns="http://www.w3.org/2000/svg">
<path d="M14.8545 0.900391C15.5133 0.903692 16.1445 1.16694 16.6104 1.63281C17.0759 2.09859 17.3394 2.72913 17.3428 3.3877V24.4092C17.3394 25.0677 17.0759 25.6983 16.6104 26.1641C16.1445 26.6299 15.5133 26.8932 14.8545 26.8965H3.3877C2.72897 26.8931 2.09862 26.6299 1.63281 26.1641C1.16701 25.6983 0.903768 25.0679 0.900391 24.4092V3.3877C0.903768 2.72897 1.16701 2.09862 1.63281 1.63281C2.09862 1.16701 2.72897 0.903768 3.3877 0.900391H14.8545ZM2.05566 24.4082C2.05566 24.7618 2.19627 25.1006 2.44629 25.3506C2.6963 25.6006 3.0351 25.7412 3.38867 25.7412H14.8535C15.2071 25.7412 15.5469 25.6006 15.7969 25.3506C16.0467 25.1006 16.1875 24.7616 16.1875 24.4082V23.0752H2.05566V24.4082ZM2.05566 21.9199H16.1875V5.87695H2.05566V21.9199ZM3.38867 2.05566C3.0351 2.05566 2.69631 2.19627 2.44629 2.44629C2.19627 2.6963 2.05566 3.0351 2.05566 3.38867V4.72168H16.1875V3.38867C16.1875 3.03526 16.0467 2.69627 15.7969 2.44629C15.5469 2.19627 15.2071 2.05566 14.8535 2.05566H3.38867Z" fill="white" stroke="white" stroke-width="0.2"/>
</svg>
